<?xml version="1.0" encoding="UTF-8"?>
<svg xmlns="http://www.w3.org/2000/svg" viewBox="0 0 100 100">
  <path d="M43.07,11.72l3.97,9.51-8.04,2.33h-.01c-.69,5.7-6.52,12.05-15.02,15.67-3.83,1.62-7.67,2.45-11.16,2.59h-.02s6.45,10.33,6.45,10.33l5.44-1.21-3.48,4.36,3.97,6.36h0c.93-2.77,3.77-5.67,7.7-7.51,4.87-2.28,9.89-2.25,12.39-.14l-14.69,14.47-5.81,5.72,6.51,10.8h10.64l8.08-14,8.08,14h10.54c.23-15.92,16.78-19.85,18.59-37.64,0-16.98-15.48-35.64-44.14-35.64Z" fill="black" stroke="white" stroke-linecap="round" stroke-width="1.5px"/>
</svg>