<?xml version="1.0" encoding="UTF-8"?>
<svg xmlns="http://www.w3.org/2000/svg" viewBox="0 0 100 100">
  <path d="M85,36.72c-11.65,12.93-19.31,28.49-21,48h-5.92l-8.08-14-8.08,14h-5.92c-1.69-19.51-9.35-35.07-21-48,6.18.93,11.74,3.13,16,8l6.82-8,8.18,6.72v-1.9c0-3.89-1.46-7.59-3.87-10.65-1.33-1.7-2.13-3.84-2.13-6.17,0-7.87,9.1-13.62,17.34-7.31,3.63,4.79,3.22,9.84.71,13.24-2.5,3.37-4.05,7.35-4.05,11.54v1.25l8.18-6.72,6.82,8c4.26-4.87,9.82-7.07,16-8Z" fill="white" stroke="black" stroke-linecap="round" stroke-width="1.5px"/>
</svg>