<?xml version="1.0" encoding="UTF-8"?>
<svg xmlns="http://www.w3.org/2000/svg" viewBox="0 0 100 100">
  <path d="M77.99,15v12h-.03v10.84c0,.28-.12.55-.33.74l-3.34,3.05c-8.01,7.31-8.58,19.73-1.27,27.74l4.68,5.13c.16.18.26.42.26.67v9.83h-19.88l-8.08-14-8.08,14h-19.88v-9.83c0-.25.1-.49.26-.67l4.68-5.13c7.31-8.01,6.74-20.43-1.27-27.74l-3.34-3.05c-.21-.19-.33-.46-.33-.74v-10.84h-.03v-12h12v10h9.99v-10h12v10h9.99v-10h12Z" fill="white" stroke="black" stroke-linecap="round" stroke-width="1.5px"/>
</svg>