<svg xmlns="http://www.w3.org/2000/svg" viewBox="0 0 100 100">
  <rect width="50" height="100" fill="#3a3a3a"/>
  <rect  x="50" width="50" height="100" fill="#f8f8f8"/>
  <path d="M72.59,75.94c0,1.87.21,3.76.66,5.64l.75,3.14h-15.92l-8.08-14V15c15.19,0,27.5,11.19,27.5,25,0,5.5-1.96,10.59-5.27,14.72h12.77c-7.79,4.38-12.41,12.57-12.41,21.22Z" fill="#3a3a3a"/>
  <path d="M50,15v55.72l-8.08,14h-15.92l.75-3.14c.45-1.88.66-3.77.66-5.64,0-8.65-4.62-16.84-12.41-21.22h12.77c-3.31-4.13-5.27-9.22-5.27-14.72,0-13.81,12.31-25,27.5-25Z" fill="#f8f8f8"/>
  <!-- <path d="M97,3v94H3V3h94M100,0H0v100h100V0h0Z" fill="#f8f8f8"/> -->
</svg>